<svg width="18" height="22" viewBox="0 0 18 22" fill="none" xmlns="http://www.w3.org/2000/svg">
<path d="M13.5 6.5V8.75C13.5 8.94891 13.421 9.13968 13.2803 9.28033C13.1397 9.42098 12.9489 9.5 12.75 9.5H12V6.5H6V9.5H5.25C5.05109 9.5 4.86032 9.42098 4.71967 9.28033C4.57902 9.13968 4.5 8.94891 4.5 8.75V6.5H1.5V20H16.5V6.5H13.5ZM4.5 5C4.5 3.80653 4.97411 2.66193 5.81802 1.81802C6.66193 0.974106 7.80653 0.5 9 0.5C10.1935 0.5 11.3381 0.974106 12.182 1.81802C13.0259 2.66193 13.5 3.80653 13.5 5H17.25C17.4489 5 17.6397 5.07902 17.7803 5.21967C17.921 5.36032 18 5.55109 18 5.75V20.75C18 20.9489 17.921 21.1397 17.7803 21.2803C17.6397 21.421 17.4489 21.5 17.25 21.5H0.75C0.551088 21.5 0.360322 21.421 0.21967 21.2803C0.0790178 21.1397 0 20.9489 0 20.75V5.75C0 5.55109 0.0790178 5.36032 0.21967 5.21967C0.360322 5.07902 0.551088 5 0.75 5H4.5ZM6 5H12C12 4.20435 11.6839 3.44129 11.1213 2.87868C10.5587 2.31607 9.79565 2 9 2C8.20435 2 7.44129 2.31607 6.87868 2.87868C6.31607 3.44129 6 4.20435 6 5Z" fill="#100E18"/>
</svg>
