<svg width="22" height="20" viewBox="0 0 22 20" fill="none" xmlns="http://www.w3.org/2000/svg">
<path d="M20.6328 4.64688C20.3187 3.91946 19.8657 3.26029 19.2992 2.70625C18.7323 2.15056 18.064 1.70896 17.3305 1.40547C16.5699 1.08952 15.7541 0.927793 14.9305 0.929689C13.775 0.929689 12.6477 1.24609 11.668 1.84375C11.4336 1.98672 11.2109 2.14375 11 2.31485C10.7891 2.14375 10.5664 1.98672 10.332 1.84375C9.35234 1.24609 8.225 0.929689 7.06953 0.929689C6.2375 0.929689 5.43125 1.08906 4.66953 1.40547C3.93359 1.71016 3.27031 2.14844 2.70078 2.70625C2.13359 3.25966 1.6805 3.91899 1.36719 4.64688C1.04141 5.40391 0.875 6.20781 0.875 7.03516C0.875 7.81563 1.03438 8.62891 1.35078 9.45625C1.61563 10.1477 1.99531 10.8648 2.48047 11.5891C3.24922 12.7352 4.30625 13.9305 5.61875 15.1422C7.79375 17.1508 9.94766 18.5383 10.0391 18.5945L10.5945 18.9508C10.8406 19.1078 11.157 19.1078 11.4031 18.9508L11.9586 18.5945C12.05 18.5359 14.2016 17.1508 16.3789 15.1422C17.6914 13.9305 18.7484 12.7352 19.5172 11.5891C20.0023 10.8648 20.3844 10.1477 20.6469 9.45625C20.9633 8.62891 21.1227 7.81563 21.1227 7.03516C21.125 6.20781 20.9586 5.40391 20.6328 4.64688ZM11 17.0969C11 17.0969 2.65625 11.7508 2.65625 7.03516C2.65625 4.64688 4.63203 2.71094 7.06953 2.71094C8.78281 2.71094 10.2688 3.66719 11 5.06406C11.7312 3.66719 13.2172 2.71094 14.9305 2.71094C17.368 2.71094 19.3438 4.64688 19.3438 7.03516C19.3438 11.7508 11 17.0969 11 17.0969Z" fill="#100E18"/>
</svg>
