<svg width="1506" height="202" viewBox="0 0 1506 202" fill="none" xmlns="http://www.w3.org/2000/svg">
<path opacity="0.4" d="M0.48 2.99998V1.99998H-0.52V2.99998H0.48ZM81.96 2.99998H82.96V1.99998H81.96V2.99998ZM81.96 31V32H82.96V31H81.96ZM31.28 31V30H30.28V31H31.28ZM31.28 85.6H30.28V86.6H31.28V85.6ZM71.04 85.6H72.04V84.6H71.04V85.6ZM71.04 113.6V114.6H72.04V113.6H71.04ZM31.28 113.6V112.6H30.28V113.6H31.28ZM31.28 199V200H32.28V199H31.28ZM0.48 199H-0.52V200H0.48V199ZM0.48 3.99998L81.96 3.99998V1.99998L0.48 1.99998V3.99998ZM80.96 2.99998V31H82.96V2.99998H80.96ZM81.96 30H31.28V32H81.96V30ZM30.28 31V85.6H32.28V31H30.28ZM31.28 86.6H71.04V84.6H31.28V86.6ZM70.04 85.6V113.6H72.04V85.6H70.04ZM71.04 112.6H31.28V114.6H71.04V112.6ZM30.28 113.6L30.28 199H32.28L32.28 113.6H30.28ZM31.28 198H0.48V200H31.28V198ZM1.48 199L1.48 2.99998H-0.52L-0.52 199H1.48ZM236.73 2.99998V1.99998H235.73V2.99998H236.73ZM267.53 2.99998H268.53V1.99998H267.53V2.99998ZM267.53 199V200H268.53V199H267.53ZM236.73 199H235.73V200H236.73V199ZM236.73 3.99998H267.53V1.99998H236.73V3.99998ZM266.53 2.99998V199H268.53V2.99998H266.53ZM267.53 198H236.73V200H267.53V198ZM237.73 199L237.73 2.99998H235.73L235.73 199H237.73ZM454.677 31H455.677V30H454.677V31ZM422.477 31H421.477V32H422.477V31ZM422.477 2.99998V1.99998H421.477V2.99998H422.477ZM517.677 2.99998H518.677V1.99998H517.677V2.99998ZM517.677 31V32H518.677V31H517.677ZM485.477 31V30H484.477V31H485.477ZM485.477 199V200H486.477V199H485.477ZM454.677 199H453.677V200H454.677V199ZM454.677 30H422.477V32H454.677V30ZM423.477 31V2.99998H421.477V31H423.477ZM422.477 3.99998L517.677 3.99998V1.99998L422.477 1.99998V3.99998ZM516.677 2.99998V31H518.677V2.99998H516.677ZM517.677 30H485.477V32H517.677V30ZM484.477 31V199H486.477V31H484.477ZM485.477 198H454.677V200H485.477V198ZM455.677 199V31H453.677V199H455.677ZM672.589 2.99998V1.99998H671.589V2.99998H672.589ZM711.229 2.99998L712.198 2.75256L712.006 1.99998H711.229V2.99998ZM741.189 120.32L740.22 120.567L740.413 121.32H741.189V120.32ZM741.749 120.32V121.32H742.749V120.32H741.749ZM741.749 2.99998V1.99998H740.749V2.99998H741.749ZM769.189 2.99998H770.189V1.99998H769.189V2.99998ZM769.189 199V200H770.189V199H769.189ZM737.549 199L736.581 199.25L736.775 200H737.549V199ZM700.589 55.92L701.558 55.6699L701.364 54.92H700.589V55.92ZM700.029 55.92V54.92H699.029V55.92H700.029ZM700.029 199V200H701.029V199H700.029ZM672.589 199H671.589V200H672.589V199ZM672.589 3.99998H711.229V1.99998H672.589V3.99998ZM710.26 3.24742L740.22 120.567L742.158 120.073L712.198 2.75256L710.26 3.24742ZM741.189 121.32H741.749V119.32H741.189V121.32ZM742.749 120.32V2.99998H740.749V120.32H742.749ZM741.749 3.99998L769.189 3.99998V1.99998L741.749 1.99998V3.99998ZM768.189 2.99998V199H770.189V2.99998H768.189ZM769.189 198H737.549V200H769.189V198ZM738.518 198.75L701.558 55.6699L699.621 56.1701L736.581 199.25L738.518 198.75ZM700.589 54.92H700.029V56.92H700.589V54.92ZM699.029 55.92V199H701.029V55.92H699.029ZM700.029 198L672.589 198V200L700.029 200V198ZM673.589 199V2.99998H671.589V199H673.589ZM932.082 2.99998V1.99998H931.082V2.99998H932.082ZM1016.08 2.99998H1017.08V1.99998H1016.08V2.99998ZM1016.08 31V32H1017.08V31H1016.08ZM962.882 31V30H961.882V31H962.882ZM962.882 82.8H961.882V83.8H962.882V82.8ZM1005.16 82.8H1006.16V81.8H1005.16V82.8ZM1005.16 110.8V111.8H1006.16V110.8H1005.16ZM962.882 110.8V109.8H961.882V110.8H962.882ZM962.882 171H961.882V172H962.882V171ZM1016.08 171H1017.08V170H1016.08V171ZM1016.08 199V200H1017.08V199H1016.08ZM932.082 199H931.082V200H932.082V199ZM932.082 3.99998L1016.08 3.99998V1.99998L932.082 1.99998V3.99998ZM1015.08 2.99998V31H1017.08V2.99998H1015.08ZM1016.08 30H962.882V32H1016.08V30ZM961.882 31V82.8H963.882V31H961.882ZM962.882 83.8H1005.16V81.8H962.882V83.8ZM1004.16 82.8V110.8H1006.16V82.8H1004.16ZM1005.16 109.8H962.882V111.8H1005.16V109.8ZM961.882 110.8V171H963.882V110.8H961.882ZM962.882 172H1016.08V170H962.882V172ZM1015.08 171V199H1017.08V171H1015.08ZM1016.08 198H932.082V200H1016.08V198ZM933.082 199V2.99998H931.082V199H933.082ZM1180.51 189.2L1179.76 189.865L1179.77 189.873L1180.51 189.2ZM1169.03 141.32V140.32H1168.03V141.32H1169.03ZM1198.15 141.32H1199.15V140.32H1198.15V141.32ZM1225.87 169.32L1225.12 168.658L1225.11 168.661L1225.87 169.32ZM1224.47 132.64L1223.61 133.147L1223.61 133.158L1224.47 132.64ZM1203.75 109.96L1203.09 110.71L1203.09 110.714L1203.75 109.96ZM1177.15 79.72L1176.27 80.2026L1176.28 80.2103L1177.15 79.72ZM1181.35 13.08L1182.08 13.7624L1182.09 13.7543L1181.35 13.08ZM1248.83 13.08L1248.07 13.7362L1248.08 13.7449L1248.09 13.7535L1248.83 13.08ZM1260.31 57.6V58.6H1261.31V57.6H1260.31ZM1231.19 57.6H1230.19V58.6H1231.19V57.6ZM1227.27 32.96L1226.5 33.5957L1226.5 33.6072L1226.51 33.6185L1227.27 32.96ZM1205.99 66.84L1205.13 67.3583L1205.14 67.3676L1205.14 67.3769L1205.99 66.84ZM1226.99 89.24L1226.33 89.9943L1226.33 89.9946L1226.99 89.24ZM1253.59 119.76L1252.7 120.229L1253.59 119.76ZM1248.83 188.92L1248.1 188.237L1248.09 188.246L1248.83 188.92ZM1214.39 200.8C1199.64 200.8 1188.66 196.658 1181.25 188.527L1179.77 189.873C1187.67 198.542 1199.27 202.8 1214.39 202.8V200.8ZM1181.25 188.535C1173.82 180.191 1170.03 168.235 1170.03 152.52H1168.03C1168.03 168.539 1171.89 181.036 1179.76 189.865L1181.25 188.535ZM1170.03 152.52V141.32H1168.03V152.52H1170.03ZM1169.03 142.32H1198.15V140.32H1169.03V142.32ZM1197.15 141.32V154.76H1199.15V141.32H1197.15ZM1197.15 154.76C1197.15 161.222 1198.5 166.255 1201.37 169.682C1204.27 173.144 1208.58 174.8 1214.11 174.8V172.8C1208.99 172.8 1205.32 171.283 1202.9 168.398C1200.46 165.479 1199.15 160.991 1199.15 154.76H1197.15ZM1214.11 174.8C1219.53 174.8 1223.76 173.246 1226.62 169.979L1225.11 168.661C1222.75 171.368 1219.14 172.8 1214.11 172.8V174.8ZM1226.62 169.982C1229.65 166.541 1231.07 161.206 1231.07 154.2H1229.07C1229.07 161.007 1227.68 165.753 1225.12 168.658L1226.62 169.982ZM1231.07 154.2C1231.07 145.83 1229.16 138.459 1225.32 132.122L1223.61 133.158C1227.24 139.141 1229.07 146.143 1229.07 154.2H1231.07ZM1225.33 132.133C1221.51 125.646 1214.51 118.002 1204.4 109.206L1203.09 110.714C1213.14 119.465 1219.95 126.94 1223.61 133.147L1225.33 132.133ZM1204.41 109.21C1191.75 98.0428 1182.98 88.0493 1178.02 79.2297L1176.28 80.2103C1181.39 89.3107 1190.36 99.4772 1203.09 110.71L1204.41 109.21ZM1178.02 79.2374C1173.07 70.2516 1170.59 60.1535 1170.59 48.92H1168.59C1168.59 60.4598 1171.14 70.895 1176.27 80.2026L1178.02 79.2374ZM1170.59 48.92C1170.59 33.5901 1174.46 21.9205 1182.08 13.7623L1180.62 12.3977C1172.55 21.0395 1168.59 33.2632 1168.59 48.92H1170.59ZM1182.09 13.7543C1189.69 5.43043 1200.77 1.19999 1215.51 1.19999V-0.800011C1200.38 -0.800011 1188.69 3.55622 1180.61 12.4057L1182.09 13.7543ZM1215.51 1.19999C1230.06 1.19999 1240.85 5.42857 1248.07 13.7362L1249.58 12.4238C1241.87 3.55808 1230.45 -0.800011 1215.51 -0.800011V1.19999ZM1248.09 13.7535C1255.52 21.9073 1259.31 33.7635 1259.31 49.48H1261.31C1261.31 33.4631 1257.44 21.0526 1249.57 12.4065L1248.09 13.7535ZM1259.31 49.48V57.6H1261.31V49.48H1259.31ZM1260.31 56.6H1231.19V58.6H1260.31V56.6ZM1232.19 57.6V47.52H1230.19V57.6H1232.19ZM1232.19 47.52C1232.19 40.7125 1230.87 35.5604 1228.02 32.3015L1226.51 33.6185C1228.89 36.3329 1230.19 40.8875 1230.19 47.52H1232.19ZM1228.04 32.3243C1225.19 28.8686 1221.05 27.2 1215.79 27.2V29.2C1220.6 29.2 1224.11 30.7047 1226.5 33.5957L1228.04 32.3243ZM1215.79 27.2C1210.44 27.2 1206.27 28.8374 1203.46 32.2555C1200.69 35.6358 1199.39 40.5952 1199.39 46.96H1201.39C1201.39 40.8181 1202.65 36.3975 1205.01 33.5245C1207.34 30.6892 1210.87 29.2 1215.79 29.2V27.2ZM1199.39 46.96C1199.39 54.239 1201.31 61.0446 1205.13 67.3583L1206.84 66.3217C1203.2 60.3154 1201.39 53.8676 1201.39 46.96H1199.39ZM1205.14 67.3769C1209.14 73.6592 1216.23 81.2009 1226.33 89.9943L1227.64 88.4857C1217.59 79.7324 1210.67 72.3408 1206.83 66.3031L1205.14 67.3769ZM1226.33 89.9946C1239.17 101.159 1247.93 111.238 1252.7 120.229L1254.47 119.291C1249.53 109.988 1240.56 99.7206 1227.64 88.4854L1226.33 89.9946ZM1252.7 120.229C1257.47 129.206 1259.87 139.773 1259.87 151.96H1261.87C1261.87 139.507 1259.41 128.607 1254.47 119.291L1252.7 120.229ZM1259.87 151.96C1259.87 167.854 1255.9 179.895 1248.1 188.237L1249.56 189.603C1257.81 180.772 1261.87 168.173 1261.87 151.96H1259.87ZM1248.09 188.246C1240.49 196.567 1229.32 200.8 1214.39 200.8V202.8C1229.7 202.8 1241.48 198.446 1249.57 189.594L1248.09 188.246ZM1424.69 189.2L1423.94 189.865L1423.95 189.873L1424.69 189.2ZM1413.21 141.32V140.32H1412.21V141.32H1413.21ZM1442.33 141.32H1443.33V140.32H1442.33V141.32ZM1470.05 169.32L1469.3 168.658L1469.29 168.661L1470.05 169.32ZM1468.65 132.64L1467.78 133.147L1467.79 133.158L1468.65 132.64ZM1447.93 109.96L1447.27 110.71L1447.27 110.714L1447.93 109.96ZM1421.33 79.72L1420.45 80.2026L1420.46 80.2103L1421.33 79.72ZM1425.53 13.08L1426.26 13.7624L1426.27 13.7543L1425.53 13.08ZM1493.01 13.08L1492.25 13.7362L1492.26 13.7449L1492.27 13.7535L1493.01 13.08ZM1504.49 57.6V58.6H1505.49V57.6H1504.49ZM1475.37 57.6H1474.37V58.6H1475.37V57.6ZM1471.45 32.96L1470.67 33.5957L1470.68 33.6072L1470.69 33.6185L1471.45 32.96ZM1450.17 66.84L1449.31 67.3583L1449.32 67.3676L1449.32 67.3769L1450.17 66.84ZM1471.17 89.24L1470.51 89.9943L1470.51 89.9946L1471.17 89.24ZM1497.77 119.76L1496.88 120.229L1497.77 119.76ZM1493.01 188.92L1492.28 188.237L1492.27 188.246L1493.01 188.92ZM1458.57 200.8C1443.82 200.8 1432.84 196.658 1425.43 188.527L1423.95 189.873C1431.85 198.542 1443.45 202.8 1458.57 202.8V200.8ZM1425.43 188.535C1418 180.191 1414.21 168.235 1414.21 152.52H1412.21C1412.21 168.539 1416.07 181.036 1423.94 189.865L1425.43 188.535ZM1414.21 152.52V141.32H1412.21V152.52H1414.21ZM1413.21 142.32H1442.33V140.32H1413.21V142.32ZM1441.33 141.32V154.76H1443.33V141.32H1441.33ZM1441.33 154.76C1441.33 161.222 1442.68 166.255 1445.55 169.682C1448.45 173.144 1452.76 174.8 1458.29 174.8V172.8C1453.17 172.8 1449.5 171.283 1447.08 168.398C1444.64 165.479 1443.33 160.991 1443.33 154.76H1441.33ZM1458.29 174.8C1463.7 174.8 1467.94 173.246 1470.8 169.979L1469.29 168.661C1466.93 171.368 1463.32 172.8 1458.29 172.8V174.8ZM1470.8 169.982C1473.83 166.541 1475.25 161.206 1475.25 154.2H1473.25C1473.25 161.007 1471.86 165.753 1469.3 168.658L1470.8 169.982ZM1475.25 154.2C1475.25 145.83 1473.34 138.459 1469.5 132.122L1467.79 133.158C1471.42 139.141 1473.25 146.143 1473.25 154.2H1475.25ZM1469.51 132.133C1465.69 125.646 1458.69 118.002 1448.58 109.206L1447.27 110.714C1457.32 119.465 1464.13 126.94 1467.78 133.147L1469.51 132.133ZM1448.59 109.21C1435.93 98.0428 1427.16 88.0493 1422.2 79.2297L1420.46 80.2103C1425.57 89.3107 1434.53 99.4772 1447.27 110.71L1448.59 109.21ZM1422.2 79.2374C1417.25 70.2516 1414.77 60.1535 1414.77 48.92H1412.77C1412.77 60.4598 1415.32 70.895 1420.45 80.2026L1422.2 79.2374ZM1414.77 48.92C1414.77 33.5901 1418.64 21.9205 1426.26 13.7623L1424.8 12.3977C1416.73 21.0395 1412.77 33.2632 1412.77 48.92H1414.77ZM1426.27 13.7543C1433.87 5.43043 1444.95 1.19999 1459.69 1.19999V-0.800011C1444.56 -0.800011 1432.87 3.55622 1424.79 12.4057L1426.27 13.7543ZM1459.69 1.19999C1474.24 1.19999 1485.03 5.42857 1492.25 13.7362L1493.76 12.4238C1486.05 3.55808 1474.63 -0.800011 1459.69 -0.800011V1.19999ZM1492.27 13.7535C1499.7 21.9073 1503.49 33.7635 1503.49 49.48H1505.49C1505.49 33.4631 1501.62 21.0526 1493.75 12.4065L1492.27 13.7535ZM1503.49 49.48V57.6H1505.49V49.48H1503.49ZM1504.49 56.6L1475.37 56.6V58.6L1504.49 58.6V56.6ZM1476.37 57.6V47.52H1474.37V57.6H1476.37ZM1476.37 47.52C1476.37 40.7125 1475.05 35.5604 1472.2 32.3015L1470.69 33.6185C1473.07 36.3329 1474.37 40.8875 1474.37 47.52H1476.37ZM1472.22 32.3243C1469.37 28.8686 1465.23 27.2 1459.97 27.2V29.2C1464.78 29.2 1468.29 30.7047 1470.67 33.5957L1472.22 32.3243ZM1459.97 27.2C1454.62 27.2 1450.45 28.8374 1447.64 32.2555C1444.87 35.6358 1443.57 40.5952 1443.57 46.96H1445.57C1445.57 40.8181 1446.83 36.3975 1449.19 33.5245C1451.52 30.6892 1455.05 29.2 1459.97 29.2V27.2ZM1443.57 46.96C1443.57 54.239 1445.49 61.0446 1449.31 67.3583L1451.02 66.3217C1447.38 60.3154 1445.57 53.8676 1445.57 46.96H1443.57ZM1449.32 67.3769C1453.32 73.6592 1460.41 81.2009 1470.51 89.9943L1471.82 88.4857C1461.77 79.7324 1454.85 72.3408 1451.01 66.3031L1449.32 67.3769ZM1470.51 89.9946C1483.35 101.159 1492.11 111.238 1496.88 120.229L1498.65 119.291C1493.71 109.988 1484.74 99.7206 1471.82 88.4854L1470.51 89.9946ZM1496.88 120.229C1501.65 129.206 1504.05 139.773 1504.05 151.96H1506.05C1506.05 139.507 1503.59 128.607 1498.65 119.291L1496.88 120.229ZM1504.05 151.96C1504.05 167.854 1500.07 179.895 1492.28 188.237L1493.74 189.603C1501.99 180.772 1506.05 168.173 1506.05 151.96H1504.05ZM1492.27 188.246C1484.67 196.567 1473.5 200.8 1458.57 200.8V202.8C1473.88 202.8 1485.66 198.446 1493.75 189.594L1492.27 188.246Z" fill="white"/>
</svg>
